<?xml version="1.0" encoding="utf-8" standalone="no"?>
<!DOCTYPE svg PUBLIC "-//W3C//DTD SVG 1.1//EN"
  "http://www.w3.org/Graphics/SVG/1.1/DTD/svg11.dtd">
<svg xmlns:xlink="http://www.w3.org/1999/xlink" width="523.193312pt" height="303.597656pt" viewBox="0 0 523.193312 303.597656" xmlns="http://www.w3.org/2000/svg" version="1.1">
 <metadata>
  <rdf:RDF xmlns:dc="http://purl.org/dc/elements/1.1/" xmlns:cc="http://creativecommons.org/ns#" xmlns:rdf="http://www.w3.org/1999/02/22-rdf-syntax-ns#">
   <cc:Work>
    <dc:type rdf:resource="http://purl.org/dc/dcmitype/StillImage"/>
    <dc:date>2022-06-23T12:13:24.601795</dc:date>
    <dc:format>image/svg+xml</dc:format>
    <dc:creator>
     <cc:Agent>
      <dc:title>Matplotlib v3.5.1, https://matplotlib.org/</dc:title>
     </cc:Agent>
    </dc:creator>
   </cc:Work>
  </rdf:RDF>
 </metadata>
 <defs>
  <style type="text/css">*{stroke-linejoin: round; stroke-linecap: butt}</style>
 </defs>
 <g id="figure_1">
  <g id="patch_1">
   <path d="M 0 303.597656 
L 523.193312 303.597656 
L 523.193312 0 
L 0 0 
L 0 303.597656 
z
" style="fill: none"/>
  </g>
  <g id="axes_1">
   <g id="matplotlib.axis_1"/>
   <g id="matplotlib.axis_2"/>
   <g id="patch_2">
    <path d="M 383.845873 160.497656 
C 383.845873 140.449076 378.300267 120.785838 367.824913 103.691613 
C 357.349558 86.597388 342.347138 72.729293 324.483722 63.627428 
C 306.620307 54.525563 286.582581 50.539811 266.595803 52.112803 
C 246.609026 53.685796 227.441506 60.757067 211.221864 72.541326 
L 243.173869 116.519491 
C 251.28369 110.627362 260.86745 107.091726 270.860838 106.30523 
C 280.854227 105.518733 290.87309 107.511609 299.804798 112.062542 
C 308.736506 116.613475 316.237716 123.547522 321.475393 132.094635 
C 326.71307 140.641747 329.485873 150.473366 329.485873 160.497656 
L 383.845873 160.497656 
z
" style="fill: #66c2a5; stroke: #ffffff; stroke-linejoin: miter"/>
   </g>
   <g id="patch_3">
    <path d="M 211.221864 72.541326 
C 199.671545 80.933124 189.886539 91.518483 182.426837 103.691609 
C 174.967135 115.864735 169.97781 129.388891 167.744398 143.490097 
C 165.510985 157.591303 166.07692 171.995327 169.409815 185.877832 
C 172.742709 199.760338 178.777746 212.851346 187.169543 224.401666 
L 231.147708 192.449661 
C 226.95181 186.674501 223.934291 180.128997 222.267844 173.187744 
C 220.601397 166.246491 220.318429 159.04448 221.435135 151.993877 
C 222.551842 144.943274 225.046504 138.181196 228.776355 132.094633 
C 232.506206 126.00807 237.398709 120.71539 243.173869 116.519491 
L 211.221864 72.541326 
z
" style="fill: #fc8d62; stroke: #ffffff; stroke-linejoin: miter"/>
   </g>
   <g id="patch_4">
    <path d="M 187.169543 224.401666 
C 193.875285 233.631329 201.992195 241.748239 211.221858 248.453982 
C 220.45152 255.159725 230.679424 260.371102 241.529543 263.89652 
L 258.327708 212.197088 
C 252.902648 210.434379 247.788697 207.82869 243.173866 204.475819 
C 238.559034 201.122948 234.500579 197.064492 231.147708 192.449661 
L 187.169543 224.401666 
z
" style="fill: #8da0cb; stroke: #ffffff; stroke-linejoin: miter"/>
   </g>
   <g id="patch_5">
    <path d="M 241.529543 263.89652 
C 252.379662 267.421938 263.71738 269.217656 275.125871 269.217656 
C 286.534361 269.217657 297.87208 267.421939 308.722199 263.896521 
L 291.924036 212.197089 
C 286.498977 213.959797 280.830117 214.857656 275.125872 214.857656 
C 269.421627 214.857656 263.752768 213.959797 258.327708 212.197088 
L 241.529543 263.89652 
z
" style="fill: #e78ac3; stroke: #ffffff; stroke-linejoin: miter"/>
   </g>
   <g id="patch_6">
    <path d="M 308.722199 263.896521 
C 314.138933 262.136518 319.409 259.953585 324.483719 257.367886 
C 329.558438 254.782188 334.422136 251.80171 339.029885 248.453985 
L 307.077879 204.475821 
C 304.774005 206.149683 302.342156 207.639922 299.804796 208.932771 
C 297.267436 210.225621 294.632403 211.317087 291.924036 212.197089 
L 308.722199 263.896521 
z
" style="fill: #a6d854; stroke: #ffffff; stroke-linejoin: miter"/>
   </g>
   <g id="patch_7">
    <path d="M 339.029885 248.453985 
C 343.637633 245.106259 347.975202 241.401626 352.002522 237.374306 
C 356.029842 233.346986 359.734475 229.009418 363.0822 224.40167 
L 319.104037 192.449663 
C 317.430174 194.753537 315.577858 196.922321 313.564198 198.935981 
C 311.550537 200.949641 309.381753 202.801958 307.077879 204.475821 
L 339.029885 248.453985 
z
" style="fill: #ffd92f; stroke: #ffffff; stroke-linejoin: miter"/>
   </g>
   <g id="patch_8">
    <path d="M 363.0822 224.40167 
C 366.429926 219.793921 369.410404 214.930223 371.996102 209.855504 
C 374.581801 204.780785 376.764734 199.510718 378.524738 194.093984 
L 326.825305 177.29582 
C 325.945304 180.004187 324.853837 182.639221 323.560988 185.17658 
C 322.268138 187.71394 320.7779 190.145789 319.104037 192.449663 
L 363.0822 224.40167 
z
" style="fill: #e5c494; stroke: #ffffff; stroke-linejoin: miter"/>
   </g>
   <g id="patch_9">
    <path d="M 378.524738 194.093984 
C 380.284741 188.677251 381.616379 183.130581 382.50735 177.505212 
C 383.398321 171.879842 383.845873 166.193147 383.845873 160.497656 
L 329.485873 160.497656 
C 329.485873 163.345402 329.262097 166.188749 328.816612 169.001434 
C 328.371126 171.814119 327.705307 174.587454 326.825305 177.29582 
L 378.524738 194.093984 
z
" style="fill: #b3b3b3; stroke: #ffffff; stroke-linejoin: miter"/>
   </g>
   <g id="text_1">
    <!-- Constitution -->
    <g style="fill: #262626" transform="translate(329.419507 57.734546)scale(0.1375 -0.1375)">
     <defs>
      <path id="DejaVuSans-43" d="M 4122 4306 
L 4122 3641 
Q 3803 3938 3442 4084 
Q 3081 4231 2675 4231 
Q 1875 4231 1450 3742 
Q 1025 3253 1025 2328 
Q 1025 1406 1450 917 
Q 1875 428 2675 428 
Q 3081 428 3442 575 
Q 3803 722 4122 1019 
L 4122 359 
Q 3791 134 3420 21 
Q 3050 -91 2638 -91 
Q 1578 -91 968 557 
Q 359 1206 359 2328 
Q 359 3453 968 4101 
Q 1578 4750 2638 4750 
Q 3056 4750 3426 4639 
Q 3797 4528 4122 4306 
z
" transform="scale(0.015625)"/>
      <path id="DejaVuSans-6f" d="M 1959 3097 
Q 1497 3097 1228 2736 
Q 959 2375 959 1747 
Q 959 1119 1226 758 
Q 1494 397 1959 397 
Q 2419 397 2687 759 
Q 2956 1122 2956 1747 
Q 2956 2369 2687 2733 
Q 2419 3097 1959 3097 
z
M 1959 3584 
Q 2709 3584 3137 3096 
Q 3566 2609 3566 1747 
Q 3566 888 3137 398 
Q 2709 -91 1959 -91 
Q 1206 -91 779 398 
Q 353 888 353 1747 
Q 353 2609 779 3096 
Q 1206 3584 1959 3584 
z
" transform="scale(0.015625)"/>
      <path id="DejaVuSans-6e" d="M 3513 2113 
L 3513 0 
L 2938 0 
L 2938 2094 
Q 2938 2591 2744 2837 
Q 2550 3084 2163 3084 
Q 1697 3084 1428 2787 
Q 1159 2491 1159 1978 
L 1159 0 
L 581 0 
L 581 3500 
L 1159 3500 
L 1159 2956 
Q 1366 3272 1645 3428 
Q 1925 3584 2291 3584 
Q 2894 3584 3203 3211 
Q 3513 2838 3513 2113 
z
" transform="scale(0.015625)"/>
      <path id="DejaVuSans-73" d="M 2834 3397 
L 2834 2853 
Q 2591 2978 2328 3040 
Q 2066 3103 1784 3103 
Q 1356 3103 1142 2972 
Q 928 2841 928 2578 
Q 928 2378 1081 2264 
Q 1234 2150 1697 2047 
L 1894 2003 
Q 2506 1872 2764 1633 
Q 3022 1394 3022 966 
Q 3022 478 2636 193 
Q 2250 -91 1575 -91 
Q 1294 -91 989 -36 
Q 684 19 347 128 
L 347 722 
Q 666 556 975 473 
Q 1284 391 1588 391 
Q 1994 391 2212 530 
Q 2431 669 2431 922 
Q 2431 1156 2273 1281 
Q 2116 1406 1581 1522 
L 1381 1569 
Q 847 1681 609 1914 
Q 372 2147 372 2553 
Q 372 3047 722 3315 
Q 1072 3584 1716 3584 
Q 2034 3584 2315 3537 
Q 2597 3491 2834 3397 
z
" transform="scale(0.015625)"/>
      <path id="DejaVuSans-74" d="M 1172 4494 
L 1172 3500 
L 2356 3500 
L 2356 3053 
L 1172 3053 
L 1172 1153 
Q 1172 725 1289 603 
Q 1406 481 1766 481 
L 2356 481 
L 2356 0 
L 1766 0 
Q 1100 0 847 248 
Q 594 497 594 1153 
L 594 3053 
L 172 3053 
L 172 3500 
L 594 3500 
L 594 4494 
L 1172 4494 
z
" transform="scale(0.015625)"/>
      <path id="DejaVuSans-69" d="M 603 3500 
L 1178 3500 
L 1178 0 
L 603 0 
L 603 3500 
z
M 603 4863 
L 1178 4863 
L 1178 4134 
L 603 4134 
L 603 4863 
z
" transform="scale(0.015625)"/>
      <path id="DejaVuSans-75" d="M 544 1381 
L 544 3500 
L 1119 3500 
L 1119 1403 
Q 1119 906 1312 657 
Q 1506 409 1894 409 
Q 2359 409 2629 706 
Q 2900 1003 2900 1516 
L 2900 3500 
L 3475 3500 
L 3475 0 
L 2900 0 
L 2900 538 
Q 2691 219 2414 64 
Q 2138 -91 1772 -91 
Q 1169 -91 856 284 
Q 544 659 544 1381 
z
M 1991 3584 
L 1991 3584 
z
" transform="scale(0.015625)"/>
     </defs>
     <use xlink:href="#DejaVuSans-43"/>
     <use xlink:href="#DejaVuSans-6f" x="69.824219"/>
     <use xlink:href="#DejaVuSans-6e" x="131.005859"/>
     <use xlink:href="#DejaVuSans-73" x="194.384766"/>
     <use xlink:href="#DejaVuSans-74" x="246.484375"/>
     <use xlink:href="#DejaVuSans-69" x="285.693359"/>
     <use xlink:href="#DejaVuSans-74" x="313.476562"/>
     <use xlink:href="#DejaVuSans-75" x="352.685547"/>
     <use xlink:href="#DejaVuSans-74" x="416.064453"/>
     <use xlink:href="#DejaVuSans-69" x="455.273438"/>
     <use xlink:href="#DejaVuSans-6f" x="483.056641"/>
     <use xlink:href="#DejaVuSans-6e" x="544.238281"/>
    </g>
   </g>
   <g id="text_2">
    <!-- Community Covenant -->
    <g style="fill: #262626" transform="translate(7.2 145.583482)scale(0.1375 -0.1375)">
     <defs>
      <path id="DejaVuSans-6d" d="M 3328 2828 
Q 3544 3216 3844 3400 
Q 4144 3584 4550 3584 
Q 5097 3584 5394 3201 
Q 5691 2819 5691 2113 
L 5691 0 
L 5113 0 
L 5113 2094 
Q 5113 2597 4934 2840 
Q 4756 3084 4391 3084 
Q 3944 3084 3684 2787 
Q 3425 2491 3425 1978 
L 3425 0 
L 2847 0 
L 2847 2094 
Q 2847 2600 2669 2842 
Q 2491 3084 2119 3084 
Q 1678 3084 1418 2786 
Q 1159 2488 1159 1978 
L 1159 0 
L 581 0 
L 581 3500 
L 1159 3500 
L 1159 2956 
Q 1356 3278 1631 3431 
Q 1906 3584 2284 3584 
Q 2666 3584 2933 3390 
Q 3200 3197 3328 2828 
z
" transform="scale(0.015625)"/>
      <path id="DejaVuSans-79" d="M 2059 -325 
Q 1816 -950 1584 -1140 
Q 1353 -1331 966 -1331 
L 506 -1331 
L 506 -850 
L 844 -850 
Q 1081 -850 1212 -737 
Q 1344 -625 1503 -206 
L 1606 56 
L 191 3500 
L 800 3500 
L 1894 763 
L 2988 3500 
L 3597 3500 
L 2059 -325 
z
" transform="scale(0.015625)"/>
      <path id="DejaVuSans-20" transform="scale(0.015625)"/>
      <path id="DejaVuSans-76" d="M 191 3500 
L 800 3500 
L 1894 563 
L 2988 3500 
L 3597 3500 
L 2284 0 
L 1503 0 
L 191 3500 
z
" transform="scale(0.015625)"/>
      <path id="DejaVuSans-65" d="M 3597 1894 
L 3597 1613 
L 953 1613 
Q 991 1019 1311 708 
Q 1631 397 2203 397 
Q 2534 397 2845 478 
Q 3156 559 3463 722 
L 3463 178 
Q 3153 47 2828 -22 
Q 2503 -91 2169 -91 
Q 1331 -91 842 396 
Q 353 884 353 1716 
Q 353 2575 817 3079 
Q 1281 3584 2069 3584 
Q 2775 3584 3186 3129 
Q 3597 2675 3597 1894 
z
M 3022 2063 
Q 3016 2534 2758 2815 
Q 2500 3097 2075 3097 
Q 1594 3097 1305 2825 
Q 1016 2553 972 2059 
L 3022 2063 
z
" transform="scale(0.015625)"/>
      <path id="DejaVuSans-61" d="M 2194 1759 
Q 1497 1759 1228 1600 
Q 959 1441 959 1056 
Q 959 750 1161 570 
Q 1363 391 1709 391 
Q 2188 391 2477 730 
Q 2766 1069 2766 1631 
L 2766 1759 
L 2194 1759 
z
M 3341 1997 
L 3341 0 
L 2766 0 
L 2766 531 
Q 2569 213 2275 61 
Q 1981 -91 1556 -91 
Q 1019 -91 701 211 
Q 384 513 384 1019 
Q 384 1609 779 1909 
Q 1175 2209 1959 2209 
L 2766 2209 
L 2766 2266 
Q 2766 2663 2505 2880 
Q 2244 3097 1772 3097 
Q 1472 3097 1187 3025 
Q 903 2953 641 2809 
L 641 3341 
Q 956 3463 1253 3523 
Q 1550 3584 1831 3584 
Q 2591 3584 2966 3190 
Q 3341 2797 3341 1997 
z
" transform="scale(0.015625)"/>
     </defs>
     <use xlink:href="#DejaVuSans-43"/>
     <use xlink:href="#DejaVuSans-6f" x="69.824219"/>
     <use xlink:href="#DejaVuSans-6d" x="131.005859"/>
     <use xlink:href="#DejaVuSans-6d" x="228.417969"/>
     <use xlink:href="#DejaVuSans-75" x="325.830078"/>
     <use xlink:href="#DejaVuSans-6e" x="389.208984"/>
     <use xlink:href="#DejaVuSans-69" x="452.587891"/>
     <use xlink:href="#DejaVuSans-74" x="480.371094"/>
     <use xlink:href="#DejaVuSans-79" x="519.580078"/>
     <use xlink:href="#DejaVuSans-20" x="578.759766"/>
     <use xlink:href="#DejaVuSans-43" x="610.546875"/>
     <use xlink:href="#DejaVuSans-6f" x="680.371094"/>
     <use xlink:href="#DejaVuSans-76" x="741.552734"/>
     <use xlink:href="#DejaVuSans-65" x="800.732422"/>
     <use xlink:href="#DejaVuSans-6e" x="862.255859"/>
     <use xlink:href="#DejaVuSans-61" x="925.634766"/>
     <use xlink:href="#DejaVuSans-6e" x="986.914062"/>
     <use xlink:href="#DejaVuSans-74" x="1050.292969"/>
    </g>
   </g>
   <g id="text_3">
    <!-- Charter -->
    <g style="fill: #262626" transform="translate(152.9338 261.043755)scale(0.1375 -0.1375)">
     <defs>
      <path id="DejaVuSans-68" d="M 3513 2113 
L 3513 0 
L 2938 0 
L 2938 2094 
Q 2938 2591 2744 2837 
Q 2550 3084 2163 3084 
Q 1697 3084 1428 2787 
Q 1159 2491 1159 1978 
L 1159 0 
L 581 0 
L 581 4863 
L 1159 4863 
L 1159 2956 
Q 1366 3272 1645 3428 
Q 1925 3584 2291 3584 
Q 2894 3584 3203 3211 
Q 3513 2838 3513 2113 
z
" transform="scale(0.015625)"/>
      <path id="DejaVuSans-72" d="M 2631 2963 
Q 2534 3019 2420 3045 
Q 2306 3072 2169 3072 
Q 1681 3072 1420 2755 
Q 1159 2438 1159 1844 
L 1159 0 
L 581 0 
L 581 3500 
L 1159 3500 
L 1159 2956 
Q 1341 3275 1631 3429 
Q 1922 3584 2338 3584 
Q 2397 3584 2469 3576 
Q 2541 3569 2628 3553 
L 2631 2963 
z
" transform="scale(0.015625)"/>
     </defs>
     <use xlink:href="#DejaVuSans-43"/>
     <use xlink:href="#DejaVuSans-68" x="69.824219"/>
     <use xlink:href="#DejaVuSans-61" x="133.203125"/>
     <use xlink:href="#DejaVuSans-72" x="194.482422"/>
     <use xlink:href="#DejaVuSans-74" x="235.595703"/>
     <use xlink:href="#DejaVuSans-65" x="274.804688"/>
     <use xlink:href="#DejaVuSans-72" x="336.328125"/>
    </g>
   </g>
   <g id="text_4">
    <!-- Manifesto -->
    <g style="fill: #262626" transform="translate(208.034464 283.883797)scale(0.1375 -0.1375)">
     <defs>
      <path id="DejaVuSans-4d" d="M 628 4666 
L 1569 4666 
L 2759 1491 
L 3956 4666 
L 4897 4666 
L 4897 0 
L 4281 0 
L 4281 4097 
L 3078 897 
L 2444 897 
L 1241 4097 
L 1241 0 
L 628 0 
L 628 4666 
z
" transform="scale(0.015625)"/>
      <path id="DejaVuSans-66" d="M 2375 4863 
L 2375 4384 
L 1825 4384 
Q 1516 4384 1395 4259 
Q 1275 4134 1275 3809 
L 1275 3500 
L 2222 3500 
L 2222 3053 
L 1275 3053 
L 1275 0 
L 697 0 
L 697 3053 
L 147 3053 
L 147 3500 
L 697 3500 
L 697 3744 
Q 697 4328 969 4595 
Q 1241 4863 1831 4863 
L 2375 4863 
z
" transform="scale(0.015625)"/>
     </defs>
     <use xlink:href="#DejaVuSans-4d"/>
     <use xlink:href="#DejaVuSans-61" x="86.279297"/>
     <use xlink:href="#DejaVuSans-6e" x="147.558594"/>
     <use xlink:href="#DejaVuSans-69" x="210.9375"/>
     <use xlink:href="#DejaVuSans-66" x="238.720703"/>
     <use xlink:href="#DejaVuSans-65" x="273.925781"/>
     <use xlink:href="#DejaVuSans-73" x="335.449219"/>
     <use xlink:href="#DejaVuSans-74" x="387.548828"/>
     <use xlink:href="#DejaVuSans-6f" x="426.757812"/>
    </g>
   </g>
   <g id="text_5">
    <!-- Code of Conduct -->
    <g style="fill: #262626" transform="translate(329.419503 270.84905)scale(0.1375 -0.1375)">
     <defs>
      <path id="DejaVuSans-64" d="M 2906 2969 
L 2906 4863 
L 3481 4863 
L 3481 0 
L 2906 0 
L 2906 525 
Q 2725 213 2448 61 
Q 2172 -91 1784 -91 
Q 1150 -91 751 415 
Q 353 922 353 1747 
Q 353 2572 751 3078 
Q 1150 3584 1784 3584 
Q 2172 3584 2448 3432 
Q 2725 3281 2906 2969 
z
M 947 1747 
Q 947 1113 1208 752 
Q 1469 391 1925 391 
Q 2381 391 2643 752 
Q 2906 1113 2906 1747 
Q 2906 2381 2643 2742 
Q 2381 3103 1925 3103 
Q 1469 3103 1208 2742 
Q 947 2381 947 1747 
z
" transform="scale(0.015625)"/>
      <path id="DejaVuSans-63" d="M 3122 3366 
L 3122 2828 
Q 2878 2963 2633 3030 
Q 2388 3097 2138 3097 
Q 1578 3097 1268 2742 
Q 959 2388 959 1747 
Q 959 1106 1268 751 
Q 1578 397 2138 397 
Q 2388 397 2633 464 
Q 2878 531 3122 666 
L 3122 134 
Q 2881 22 2623 -34 
Q 2366 -91 2075 -91 
Q 1284 -91 818 406 
Q 353 903 353 1747 
Q 353 2603 823 3093 
Q 1294 3584 2113 3584 
Q 2378 3584 2631 3529 
Q 2884 3475 3122 3366 
z
" transform="scale(0.015625)"/>
     </defs>
     <use xlink:href="#DejaVuSans-43"/>
     <use xlink:href="#DejaVuSans-6f" x="69.824219"/>
     <use xlink:href="#DejaVuSans-64" x="131.005859"/>
     <use xlink:href="#DejaVuSans-65" x="194.482422"/>
     <use xlink:href="#DejaVuSans-20" x="256.005859"/>
     <use xlink:href="#DejaVuSans-6f" x="287.792969"/>
     <use xlink:href="#DejaVuSans-66" x="348.974609"/>
     <use xlink:href="#DejaVuSans-20" x="384.179688"/>
     <use xlink:href="#DejaVuSans-43" x="415.966797"/>
     <use xlink:href="#DejaVuSans-6f" x="485.791016"/>
     <use xlink:href="#DejaVuSans-6e" x="546.972656"/>
     <use xlink:href="#DejaVuSans-64" x="610.351562"/>
     <use xlink:href="#DejaVuSans-75" x="673.828125"/>
     <use xlink:href="#DejaVuSans-63" x="737.207031"/>
     <use xlink:href="#DejaVuSans-74" x="792.1875"/>
    </g>
   </g>
   <g id="text_6">
    <!-- Community Guidelines -->
    <g style="fill: #262626" transform="translate(359.690187 248.856112)scale(0.1375 -0.1375)">
     <defs>
      <path id="DejaVuSans-47" d="M 3809 666 
L 3809 1919 
L 2778 1919 
L 2778 2438 
L 4434 2438 
L 4434 434 
Q 4069 175 3628 42 
Q 3188 -91 2688 -91 
Q 1594 -91 976 548 
Q 359 1188 359 2328 
Q 359 3472 976 4111 
Q 1594 4750 2688 4750 
Q 3144 4750 3555 4637 
Q 3966 4525 4313 4306 
L 4313 3634 
Q 3963 3931 3569 4081 
Q 3175 4231 2741 4231 
Q 1884 4231 1454 3753 
Q 1025 3275 1025 2328 
Q 1025 1384 1454 906 
Q 1884 428 2741 428 
Q 3075 428 3337 486 
Q 3600 544 3809 666 
z
" transform="scale(0.015625)"/>
      <path id="DejaVuSans-6c" d="M 603 4863 
L 1178 4863 
L 1178 0 
L 603 0 
L 603 4863 
z
" transform="scale(0.015625)"/>
     </defs>
     <use xlink:href="#DejaVuSans-43"/>
     <use xlink:href="#DejaVuSans-6f" x="69.824219"/>
     <use xlink:href="#DejaVuSans-6d" x="131.005859"/>
     <use xlink:href="#DejaVuSans-6d" x="228.417969"/>
     <use xlink:href="#DejaVuSans-75" x="325.830078"/>
     <use xlink:href="#DejaVuSans-6e" x="389.208984"/>
     <use xlink:href="#DejaVuSans-69" x="452.587891"/>
     <use xlink:href="#DejaVuSans-74" x="480.371094"/>
     <use xlink:href="#DejaVuSans-79" x="519.580078"/>
     <use xlink:href="#DejaVuSans-20" x="578.759766"/>
     <use xlink:href="#DejaVuSans-47" x="610.546875"/>
     <use xlink:href="#DejaVuSans-75" x="688.037109"/>
     <use xlink:href="#DejaVuSans-69" x="751.416016"/>
     <use xlink:href="#DejaVuSans-64" x="779.199219"/>
     <use xlink:href="#DejaVuSans-65" x="842.675781"/>
     <use xlink:href="#DejaVuSans-6c" x="904.199219"/>
     <use xlink:href="#DejaVuSans-69" x="931.982422"/>
     <use xlink:href="#DejaVuSans-6e" x="959.765625"/>
     <use xlink:href="#DejaVuSans-65" x="1023.144531"/>
     <use xlink:href="#DejaVuSans-73" x="1084.667969"/>
    </g>
   </g>
   <g id="text_7">
    <!-- Lore -->
    <g style="fill: #262626" transform="translate(381.683125 218.585429)scale(0.1375 -0.1375)">
     <defs>
      <path id="DejaVuSans-4c" d="M 628 4666 
L 1259 4666 
L 1259 531 
L 3531 531 
L 3531 0 
L 628 0 
L 628 4666 
z
" transform="scale(0.015625)"/>
     </defs>
     <use xlink:href="#DejaVuSans-4c"/>
     <use xlink:href="#DejaVuSans-6f" x="53.962891"/>
     <use xlink:href="#DejaVuSans-72" x="115.144531"/>
     <use xlink:href="#DejaVuSans-65" x="154.007812"/>
    </g>
   </g>
   <g id="text_8">
    <!-- TLDR -->
    <g style="fill: #262626" transform="translate(393.245497 183.000108)scale(0.1375 -0.1375)">
     <defs>
      <path id="DejaVuSans-54" d="M -19 4666 
L 3928 4666 
L 3928 4134 
L 2272 4134 
L 2272 0 
L 1638 0 
L 1638 4134 
L -19 4134 
L -19 4666 
z
" transform="scale(0.015625)"/>
      <path id="DejaVuSans-44" d="M 1259 4147 
L 1259 519 
L 2022 519 
Q 2988 519 3436 956 
Q 3884 1394 3884 2338 
Q 3884 3275 3436 3711 
Q 2988 4147 2022 4147 
L 1259 4147 
z
M 628 4666 
L 1925 4666 
Q 3281 4666 3915 4102 
Q 4550 3538 4550 2338 
Q 4550 1131 3912 565 
Q 3275 0 1925 0 
L 628 0 
L 628 4666 
z
" transform="scale(0.015625)"/>
      <path id="DejaVuSans-52" d="M 2841 2188 
Q 3044 2119 3236 1894 
Q 3428 1669 3622 1275 
L 4263 0 
L 3584 0 
L 2988 1197 
Q 2756 1666 2539 1819 
Q 2322 1972 1947 1972 
L 1259 1972 
L 1259 0 
L 628 0 
L 628 4666 
L 2053 4666 
Q 2853 4666 3247 4331 
Q 3641 3997 3641 3322 
Q 3641 2881 3436 2590 
Q 3231 2300 2841 2188 
z
M 1259 4147 
L 1259 2491 
L 2053 2491 
Q 2509 2491 2742 2702 
Q 2975 2913 2975 3322 
Q 2975 3731 2742 3939 
Q 2509 4147 2053 4147 
L 1259 4147 
z
" transform="scale(0.015625)"/>
     </defs>
     <use xlink:href="#DejaVuSans-54"/>
     <use xlink:href="#DejaVuSans-4c" x="61.083984"/>
     <use xlink:href="#DejaVuSans-44" x="116.796875"/>
     <use xlink:href="#DejaVuSans-52" x="193.798828"/>
    </g>
   </g>
   <g id="text_9">
    <!-- Document Titles -->
    <g style="fill: #262626" transform="translate(213.911811 18.597656)scale(0.15 -0.15)">
     <use xlink:href="#DejaVuSans-44"/>
     <use xlink:href="#DejaVuSans-6f" x="77.001953"/>
     <use xlink:href="#DejaVuSans-63" x="138.183594"/>
     <use xlink:href="#DejaVuSans-75" x="193.164062"/>
     <use xlink:href="#DejaVuSans-6d" x="256.542969"/>
     <use xlink:href="#DejaVuSans-65" x="353.955078"/>
     <use xlink:href="#DejaVuSans-6e" x="415.478516"/>
     <use xlink:href="#DejaVuSans-74" x="478.857422"/>
     <use xlink:href="#DejaVuSans-20" x="518.066406"/>
     <use xlink:href="#DejaVuSans-54" x="549.853516"/>
     <use xlink:href="#DejaVuSans-69" x="607.8125"/>
     <use xlink:href="#DejaVuSans-74" x="635.595703"/>
     <use xlink:href="#DejaVuSans-6c" x="674.804688"/>
     <use xlink:href="#DejaVuSans-65" x="702.587891"/>
     <use xlink:href="#DejaVuSans-73" x="764.111328"/>
    </g>
   </g>
  </g>
 </g>
</svg>
